# xmcd CD database file
#
# Track frame offsets:
#	225
#	19104
#	36567
#	54375
#	72560
#	93920
#	107766
#	124730
#	147921
#	167305
#	187443
#	201936
#	228158
#	247610
#	265476
#	281579
#	300287
#	316805
#
# Disc length: 4440 seconds
#
# Revision: 0
# Processed by: cddbd v1.5.1PL2 Copyright (c) Steve Scherf et al.
# Submitted via: ACXtractor (MTCDDB.DLL V2003.12.21)
#
DISCID=fc115512
DTITLE=Michael Holm - Mein Gefühl Für Dich
DYEAR=1995
DGENRE=Rock
TTITLE0=Das Haus am Rhein
TTITLE1=(Aber) Träume fängt man nicht
TTITLE2=Die Liebe einer Nacht
TTITLE3=Ich gab ihr meinen Namen
TTITLE4=Einer denkt immer an Dich
TTITLE5=Im Jahr der Liebe
TTITLE6=Liebe braucht Nähe
TTITLE7=Die Nacht hat 1000 Augen
TTITLE8=Schlaf nicht ein
TTITLE9=Mein Gefühl für Dich
TTITLE10=Zu spät (Again)
TTITLE11=Halt mich fest
TTITLE12=Kind (Anak)
TTITLE13=Menschen ohne Ziel
TTITLE14=Lebwohl
TTITLE15=Ein Junggeselle
TTITLE16=Geh nicht von mir
TTITLE17=Nur so als Freund
EXTD=ID3G:  17 YEAR: 1995
EXTT0=
EXTT1=
EXTT2=
EXTT3=
EXTT4=
EXTT5=
EXTT6=
EXTT7=
EXTT8=
EXTT9=
EXTT10=
EXTT11=
EXTT12=
EXTT13=
EXTT14=
EXTT15=
EXTT16=
EXTT17=
PLAYORDER=
